<svg width="801" height="248" viewBox="0 0 801 248" fill="none" xmlns="http://www.w3.org/2000/svg">
<path d="M331.208 8.39999C350.536 8.39999 380.488 15.312 380.488 53.328C380.488 91.344 350.536 98 331.208 98H290.12V8.39999H331.208ZM325.704 72.912C336.968 72.912 349.768 70.224 349.768 53.328C349.768 36.304 336.968 33.616 325.704 33.616H319.816V72.912H325.704ZM460.324 66.256L477.22 98H446.372L433.572 73.936C430.884 74.064 428.196 74.192 425.38 74.192H417.316V98H387.62V8.39999H425.38C450.34 8.39999 471.332 14.288 471.332 41.296C471.332 53.328 467.108 61.264 460.324 66.256ZM432.164 49.104C439.46 49.104 442.148 45.264 442.148 41.296C442.148 37.328 439.46 33.616 432.164 33.616H417.316V49.104H432.164ZM512.441 98H482.745V8.39999H512.441V98ZM552.566 72.912H598.006V98L522.87 98.128V8.39999H552.566V72.912ZM633.191 72.912H678.631V98L603.495 98.128V8.39999H633.191V72.912ZM388.936 132.528H420.936L400.456 222H358.472L352.968 187.824L347.464 222H305.48L285 132.528H317L326.6 194.864L338.248 132.528H367.688L379.208 194.864L388.936 132.528ZM469.944 130.352C493.88 130.352 519.096 143.28 519.096 177.2C519.096 211.248 493.88 224.176 469.944 224.176C446.136 224.176 420.92 211.248 420.92 177.2C420.92 143.28 446.136 130.352 469.944 130.352ZM469.944 199.088C479.288 199.088 489.912 193.968 489.912 177.2C489.912 160.56 479.288 155.44 469.944 155.44C460.728 155.44 450.104 160.56 450.104 177.2C450.104 193.968 460.728 199.088 469.944 199.088ZM598.949 190.256L615.845 222H584.997L572.197 197.936C569.509 198.064 566.821 198.192 564.005 198.192H555.941V222H526.245V132.4H564.005C588.965 132.4 609.957 138.288 609.957 165.296C609.957 177.328 605.733 185.264 598.949 190.256ZM570.789 173.104C578.085 173.104 580.773 169.264 580.773 165.296C580.773 161.328 578.085 157.616 570.789 157.616H555.941V173.104H570.789ZM678.074 170.16L715.194 222H681.786L660.794 192.688L651.066 205.36V222H621.37V132.4H651.066V167.984L678.458 132.4H707.258L678.074 170.16ZM764.302 167.728C789.902 173.744 798.99 181.296 798.99 196.144C798.99 208.048 788.494 224.176 755.342 224.176C729.358 224.176 716.174 209.968 709.774 198.704L740.622 191.408C747.15 197.936 754.702 199.088 759.566 199.088C764.686 199.088 768.142 197.168 768.142 194.224C768.142 190.128 763.406 189.232 750.734 186.8C737.166 184.112 712.206 176.944 712.206 156.208C712.206 141.232 725.262 130.352 753.038 130.352C777.486 130.352 793.998 145.072 796.814 155.696L768.142 161.584C765.454 157.104 757.902 155.44 751.63 155.44C747.278 155.44 742.926 156.464 742.926 159.28C742.926 163.76 750.862 164.656 764.302 167.728Z" fill="black"/>
<g clip-path="url(#clip0_2092_59)">
<path d="M262.197 66.0628C246.583 33.1343 221.213 12.0085 186.086 2.68525C179.687 1.22614 172.32 0.689043 165.767 0.357834C110.511 0.178801 55.2556 0.119005 0 0.178801V221.463C8.19993 221.523 16.3991 221.463 24.5976 221.284C24.7916 221.027 25.0293 220.848 25.3106 220.747C45.5334 191.705 65.4967 162.463 85.2005 133.021C85.3224 132.721 85.5599 132.601 85.9135 132.663C86.27 161.999 86.3887 191.599 86.27 221.463C95.8959 221.523 105.521 221.463 115.145 221.284C115.621 220.687 116.809 219.553 117.284 218.956C149.249 172.521 181.095 125.973 212.823 79.3112C204.867 71.1402 196.846 63.0243 188.76 54.9628C165.437 89.0466 142.206 123.182 119.067 157.369C118.945 157.669 118.707 157.789 118.354 157.727C117.998 121.623 117.879 85.4584 117.997 49.2338C113.124 49.174 108.252 49.2338 103.381 49.4128C79.8735 84.2432 54.4442 120.587 30.6579 155.221C30.3014 113.746 30.1827 72.2101 30.3014 30.6143C75.6944 30.5545 121.087 30.6143 166.48 30.7933C167.371 30.7709 170.045 31.129 170.045 31.129C175.923 32.0606 179.963 33.6349 185.73 35.4481C206.898 43.2441 222.524 57.2684 232.608 77.5209C243.249 102.269 242.18 126.498 229.4 150.208C212.749 177.343 188.449 190.711 156.498 190.311C149.319 200.804 142.07 211.248 134.752 221.642C147.467 221.881 160.182 221.881 172.896 221.642C184.958 220.493 196.484 217.39 207.476 212.332C236.116 197.768 255.782 175.269 266.474 144.837C274.616 118.036 273.19 91.7779 262.197 66.0628Z" fill="black"/>
</g>
<defs>
<clipPath id="clip0_2092_59">
<rect width="272" height="222" fill="white"/>
</clipPath>
</defs>
</svg>
