<svg width="763" height="620" viewBox="0 0 763 620" fill="none" xmlns="http://www.w3.org/2000/svg">
<path fill-rule="evenodd" clip-rule="evenodd" d="M522 7.06264C620.535 33.1006 691.701 92.1006 735.5 184.063C766.338 255.88 770.338 329.213 747.5 404.063C717.506 489.053 662.339 551.887 582 592.563C551.167 606.688 518.834 615.355 485 618.563C449.333 619.23 413.667 619.23 378 618.563C398.528 589.534 418.861 560.368 439 531.063C528.627 532.179 596.793 494.846 643.5 419.063C679.35 352.846 682.35 285.179 652.5 216.063C624.213 159.502 580.38 120.335 521 98.5626C504.823 93.4986 488.49 89.6646 472 87.0626C472.739 87.1936 473.406 87.0266 474 86.5626C471.667 86.2296 469.333 85.8956 467 85.5626C339.667 85.0626 212.334 84.8956 85 85.0626C84.667 201.231 85 317.231 86 433.063C152.724 336.337 219.057 239.337 285 142.063C284.869 142.802 285.036 143.469 285.5 144.063C286.877 141.809 288.377 139.643 290 137.563C303.663 137.063 317.329 136.896 331 137.063C330.667 238.231 331.001 339.231 332 440.063C332.992 440.235 333.658 439.901 334 439.063C398.91 343.585 464.076 248.252 529.5 153.063C552.181 175.577 574.681 198.243 597 221.063C507.999 351.379 418.666 481.379 329 611.063C329.065 610.625 328.899 610.291 328.5 610.063C327.433 610.754 326.266 611.254 325 611.563C325.667 611.896 326.333 612.23 327 612.563C325.667 614.23 324.333 615.896 323 617.563C296.002 618.063 269.002 618.23 242 618.063C242.333 534.659 242 451.992 241 370.063C240.008 369.891 239.342 370.225 239 371.063C183.728 453.288 127.728 534.955 71 616.063C70.211 616.346 69.544 616.846 69 617.563C46.002 618.063 23.002 618.23 0 618.063C0 412.063 0 206.063 0 0.0626405C155 -0.104359 310 0.0626405 465 0.562641C483.382 1.48764 501.549 3.98764 519.5 8.06264C520.57 8.03464 521.403 7.70164 522 7.06264Z" fill="#181818"/>
</svg>
